<svg width="161" height="57" fill="none" xmlns="http://www.w3.org/2000/svg"><path d="M84.58 8.32v27.658h-6.843V14.826h-11.87v21.152h-6.842V8.32H84.58zm21.887 0c1.544 0 2.976.265 4.298.796a9.674 9.674 0 013.384 2.257 10.65 10.65 0 012.236 3.48c.543 1.354.815 2.841.815 4.474s-.272 3.12-.815 4.448c-.544 1.328-1.285 2.47-2.224 3.4-.938.93-2.075 1.646-3.384 2.15-1.309.505-2.742.758-4.298.758h-8.35v5.909h-6.842V8.319h15.18zm-8.35 15.057h8.09c1.211 0 2.199-.332 2.977-.996.778-.664 1.161-1.686 1.161-3.054 0-1.328-.383-2.39-1.161-3.147-.778-.77-1.766-1.155-2.977-1.155h-8.09v8.352zm53.74-1.208c0 2.164-.395 4.143-1.186 5.922-.79 1.78-1.84 3.306-3.162 4.581a14.172 14.172 0 01-4.594 2.948 14.62 14.62 0 01-5.509 1.049 14.62 14.62 0 01-5.509-1.05 14.124 14.124 0 01-4.594-2.947c-1.322-1.261-2.372-2.788-3.162-4.581-.791-1.78-1.186-3.758-1.186-5.922 0-2.165.395-4.143 1.186-5.922.79-1.78 1.84-3.307 3.162-4.581a14.171 14.171 0 014.594-2.948 14.621 14.621 0 015.509-1.05c1.914 0 3.755.346 5.509 1.05a14.136 14.136 0 014.594 2.948c1.322 1.261 2.372 2.788 3.162 4.58.791 1.78 1.186 3.758 1.186 5.923zm-22.047 0c0 1.261.198 2.403.58 3.426.383 1.022.927 1.885 1.631 2.602a7.353 7.353 0 002.421 1.647c.914.385 1.914.57 3.001.57 1.05 0 2.05-.185 2.977-.57a6.986 6.986 0 002.42-1.647 7.618 7.618 0 001.606-2.602c.383-1.023.581-2.165.581-3.426 0-1.262-.198-2.404-.581-3.426a7.618 7.618 0 00-1.606-2.603 6.985 6.985 0 00-2.42-1.646 7.705 7.705 0 00-2.977-.571c-1.087 0-2.087.186-3.001.57a7.351 7.351 0 00-2.421 1.647c-.704.717-1.235 1.58-1.631 2.603-.395 1.022-.58 2.164-.58 3.426z" fill="#fff"/><path d="M66.339 45.605c0 .664-.124 1.275-.358 1.82a4.43 4.43 0 01-.976 1.407 4.441 4.441 0 01-3.1 1.221 4.576 4.576 0 01-1.692-.318 4.183 4.183 0 01-1.408-.903 4.43 4.43 0 01-.976-1.408c-.247-.544-.358-1.155-.358-1.819 0-.664.123-1.275.358-1.819a4.428 4.428 0 01.976-1.407 4.44 4.44 0 013.1-1.222c.593 0 1.148.106 1.692.319a4.306 4.306 0 011.408.903c.407.385.729.863.976 1.407.234.544.358 1.155.358 1.82zm-6.769 0c0 .385.062.744.173 1.05a2.3 2.3 0 00.494.796c.21.225.457.385.741.504.285.12.593.173.927.173.32 0 .63-.053.914-.173.284-.12.53-.292.74-.504.21-.226.371-.492.495-.797.123-.319.173-.664.173-1.049 0-.385-.062-.743-.173-1.049a2.284 2.284 0 00-.494-.797 2.094 2.094 0 00-.741-.504 2.343 2.343 0 00-.914-.173c-.334 0-.642.053-.927.173a2.28 2.28 0 00-.74.504c-.21.226-.383.492-.495.797-.11.306-.173.65-.173 1.05zm14.98-4.262v2.031h-4.83v.664h2.977c.408 0 .79.067 1.137.213.346.146.642.345.889.597.247.253.445.558.58.903a3.217 3.217 0 010 2.284 2.797 2.797 0 01-1.47 1.58c-.345.16-.728.24-1.136.24h-5.076v-8.499h6.93v-.013zm-4.83 6.466h2.842c.32 0 .543-.092.666-.265.124-.173.173-.398.173-.65 0-.24-.061-.439-.185-.612-.123-.172-.346-.252-.667-.252h-2.828v1.78zm11.527-6.466c.47 0 .914.08 1.321.252.408.16.754.398 1.038.69.284.293.519.651.68 1.063a3.8 3.8 0 01.246 1.38c0 .505-.086.957-.247 1.368-.16.412-.395.757-.68 1.05-.283.292-.641.504-1.037.663-.407.16-.84.226-1.321.226h-2.57v1.806h-2.099v-8.498h4.669zm-2.557 4.62h2.483c.37 0 .68-.105.914-.305.234-.199.358-.517.358-.942 0-.412-.124-.73-.358-.97-.235-.239-.544-.358-.914-.358H78.69v2.576zm12.597-4.62l3.36 8.498h-2.224l-.494-1.248h-4.372l-.482 1.248h-2.272l3.433-8.498h3.051zm-2.977 5.285h2.792l-1.198-3.267h-.334l-1.26 3.267zm12.525-2.205c.148 0 .234-.04.296-.132a.766.766 0 00.074-.359c0-.252-.148-.451-.432-.597-.284-.147-.729-.213-1.334-.213-.358 0-.68.013-.951.04a4.28 4.28 0 00-.754.133 3 3 0 00-.666.279 9.05 9.05 0 00-.717.438l-.877-1.607a5.955 5.955 0 011.89-.996 6.11 6.11 0 01.976-.212c.333-.04.679-.067 1.037-.067 1.433 0 2.483.28 3.125.85.531.452.803 1.076.803 1.886 0 .239-.037.465-.124.69-.086.226-.197.399-.346.518.309.24.544.505.717.823.16.319.247.704.247 1.195 0 .439-.099.837-.284 1.195a3.008 3.008 0 01-.803.956c-.371.293-.828.505-1.383.625-.556.12-1.186.172-1.878.172-.444 0-.864-.026-1.235-.08a6.598 6.598 0 01-1.062-.239 5.75 5.75 0 01-.976-.424 7.895 7.895 0 01-.963-.624l.963-1.66c.482.332.988.597 1.556.77.556.186 1.162.265 1.816.265.321 0 .618-.013.889-.04.272-.026.494-.08.692-.159a.89.89 0 00.432-.332.92.92 0 00.161-.53c0-.213-.062-.373-.198-.466-.136-.093-.37-.132-.728-.132h-3.2V44.41h3.237v.013zm12.969 1.182c0 .664-.124 1.275-.359 1.82a4.438 4.438 0 01-.975 1.407c-.408.385-.877.69-1.408.903a4.59 4.59 0 01-1.692.318 4.583 4.583 0 01-1.693-.318 4.194 4.194 0 01-1.408-.903 4.438 4.438 0 01-.975-1.408c-.247-.544-.358-1.155-.358-1.819 0-.664.123-1.275.358-1.819a4.435 4.435 0 01.975-1.407 4.445 4.445 0 013.101-1.222 4.57 4.57 0 011.692.319 4.305 4.305 0 011.408.903c.407.385.728.863.975 1.407a4.56 4.56 0 01.359 1.82zm-6.769 0c0 .385.062.744.173 1.05a2.3 2.3 0 00.494.796c.21.225.457.385.741.504.284.12.593.173.927.173.321 0 .63-.053.914-.173.284-.12.531-.292.741-.504.21-.226.37-.492.494-.797.123-.319.173-.664.173-1.049 0-.385-.062-.743-.173-1.049a2.291 2.291 0 00-.494-.797 2.094 2.094 0 00-.741-.504 2.343 2.343 0 00-.914-.173c-.334 0-.643.053-.927.173-.284.12-.531.292-.741.504-.21.226-.383.492-.494.797-.123.306-.173.65-.173 1.05zm13.181-4.262c.358 0 .679.053.988.172.308.107.568.266.79.478.222.2.395.452.519.744.123.292.185.61.185.97 0 .265-.049.517-.136.756a1.193 1.193 0 01-.42.571c.346.213.606.492.803.824.185.332.284.77.284 1.314 0 .372-.061.717-.197 1.05-.136.331-.321.61-.556.849a2.712 2.712 0 01-.828.57 2.395 2.395 0 01-1.012.213h-5.546v-8.498h5.126v-.013zm-3.026 3.173h3.013c.099 0 .198-.053.297-.172a.674.674 0 00.136-.399.801.801 0 00-.112-.371c-.074-.133-.197-.2-.395-.2h-2.939v1.142zm0 3.293h3.384c.16 0 .296-.053.42-.172a.678.678 0 00.173-.478c0-.2-.062-.359-.173-.492a.603.603 0 00-.47-.199h-3.334v1.341zm12.928-6.466l3.36 8.498h-2.223l-.494-1.248h-4.373l-.481 1.248h-2.261l3.434-8.498h3.038zm-2.976 5.285h2.791l-1.198-3.267h-.333l-1.26 3.267zm9.487-5.285v3.107h3.866v-3.107h2.1v8.498h-2.1v-3.36h-3.866v3.36h-2.1v-8.498h2.1zm9.424 0v5.39l4.137-5.39h2.014v8.498h-2.1v-5.364l-4.138 5.364h-2.013v-8.498h2.1zm14.761 0v2.031h-5.175v1.156h4.644v2.031h-4.644v1.195h5.36v2.085h-7.46v-8.498h7.275z" fill="#5C6CF9"/><path d="M24.282 26.723L31.73.047 7.448 9.754 0 36.43l24.282-9.707z" fill="#5A4ADD"/><path d="M25.677 31.77L37.423 6.951l-25.505 4.9L.172 36.669l25.505-4.9z" fill="#222169"/><path d="M26.209 37.014l15.674-22.162-25.9-.08L.308 36.935l25.9.08z" fill="#6695DE"/><path d="M25.863 42.272L44.971 23.47 19.49 18.424.383 37.24l25.48 5.032z" fill="#222169"/><path d="M24.653 47.385l21.91-14.846L22.332 22.7.42 37.545l24.233 9.84z" fill="#6695DE"/><path d="M22.616 52.178l24.023-10.41L24.432 27.44.396 37.85l22.22 14.328z" fill="#222169"/><path d="M19.81 56.507l25.37-5.63L25.7 32.513.332 38.143 19.81 56.507z" fill="#5A4ADD"/><path opacity=".2" d="M45.18 50.877s-7.794.265-21.677-6.427C9.435 37.665.332 38.156.332 38.156l25.37-5.63 19.477 18.35z" fill="#3100A2"/></svg>