<svg width="147" height="23" fill="none" xmlns="http://www.w3.org/2000/svg"><path d="M17.36 22h-4.77l-7.5-9.84V22H.95V1h4.14v9.27L12.29 1h4.77L9.29 11.2 17.36 22z" fill="#FF174E"/><path d="M32.007 20.14c-1.54 1.52-3.42 2.28-5.64 2.28-2.22 0-4.1-.76-5.64-2.28-1.52-1.54-2.28-3.42-2.28-5.64 0-2.22.76-4.09 2.28-5.61 1.54-1.54 3.42-2.31 5.64-2.31 2.22 0 4.1.77 5.64 2.31 1.54 1.52 2.31 3.39 2.31 5.61s-.77 4.1-2.31 5.64zm-8.55-2.67c.78.78 1.75 1.17 2.91 1.17 1.16 0 2.13-.39 2.91-1.17.78-.78 1.17-1.77 1.17-2.97 0-1.2-.39-2.19-1.17-2.97-.78-.78-1.75-1.17-2.91-1.17-1.16 0-2.13.39-2.91 1.17-.76.78-1.14 1.77-1.14 2.97 0 1.2.38 2.19 1.14 2.97zM37.039 22V.1h3.87V22h-3.87zm10.683-5.91c.52 1.88 1.93 2.82 4.23 2.82 1.48 0 2.6-.5 3.36-1.5l3.12 1.8c-1.48 2.14-3.66 3.21-6.54 3.21-2.48 0-4.47-.75-5.97-2.25s-2.25-3.39-2.25-5.67c0-2.26.74-4.14 2.22-5.64 1.48-1.52 3.38-2.28 5.7-2.28 2.2 0 4.01.76 5.43 2.28 1.44 1.52 2.16 3.4 2.16 5.64 0 .5-.05 1.03-.15 1.59h-11.31zm-.06-3h7.65c-.22-1.02-.68-1.78-1.38-2.28-.68-.5-1.46-.75-2.34-.75-1.04 0-1.9.27-2.58.81-.68.52-1.13 1.26-1.35 2.22zm17.205-1.83c0 .4.26.73.78.99.54.24 1.19.46 1.95.66.76.18 1.52.42 2.28.72.76.28 1.4.76 1.92 1.44.54.68.81 1.53.81 2.55 0 1.54-.58 2.73-1.74 3.57-1.14.82-2.57 1.23-4.29 1.23-3.08 0-5.18-1.19-6.3-3.57l3.36-1.89c.44 1.3 1.42 1.95 2.94 1.95 1.38 0 2.07-.43 2.07-1.29 0-.4-.27-.72-.81-.96-.52-.26-1.16-.49-1.92-.69-.76-.2-1.52-.45-2.28-.75-.76-.3-1.41-.77-1.95-1.41-.52-.66-.78-1.48-.78-2.46 0-1.48.54-2.64 1.62-3.48 1.1-.86 2.46-1.29 4.08-1.29 1.22 0 2.33.28 3.33.84 1 .54 1.79 1.32 2.37 2.34l-3.3 1.8c-.48-1.02-1.28-1.53-2.4-1.53-.5 0-.92.11-1.26.33-.32.22-.48.52-.48.9zm18.716-4.68c1.64 0 2.99.55 4.05 1.65 1.08 1.1 1.62 2.62 1.62 4.56V22h-3.87v-8.73c0-1-.27-1.76-.81-2.28-.54-.54-1.26-.81-2.16-.81-1 0-1.8.31-2.4.93-.6.62-.9 1.55-.9 2.79V22h-3.87V7h3.87v1.68c.94-1.4 2.43-2.1 4.47-2.1zM94.477 5.2c-.64 0-1.2-.23-1.68-.69-.46-.48-.69-1.04-.69-1.68 0-.64.23-1.2.69-1.68.48-.48 1.04-.72 1.68-.72.66 0 1.22.24 1.68.72.48.48.72 1.04.72 1.68 0 .64-.24 1.2-.72 1.68-.46.46-1.02.69-1.68.69zM92.557 22V7h3.87v15h-3.87zm21.242 0h-4.5l-5.46-6.81V22h-3.87V1h3.87v12.6l5.16-6.6h4.62l-6.03 7.41 6.21 7.59zm13.628-1.86c-1.54 1.52-3.42 2.28-5.64 2.28-2.22 0-4.1-.76-5.64-2.28-1.52-1.54-2.28-3.42-2.28-5.64 0-2.22.76-4.09 2.28-5.61 1.54-1.54 3.42-2.31 5.64-2.31 2.22 0 4.1.77 5.64 2.31 1.54 1.52 2.31 3.39 2.31 5.61s-.77 4.1-2.31 5.64zm-8.55-2.67c.78.78 1.75 1.17 2.91 1.17 1.16 0 2.13-.39 2.91-1.17.78-.78 1.17-1.77 1.17-2.97 0-1.2-.39-2.19-1.17-2.97-.78-.78-1.75-1.17-2.91-1.17-1.16 0-2.13.39-2.91 1.17-.76.78-1.14 1.77-1.14 2.97 0 1.2.38 2.19 1.14 2.97zM141.744 7h4.26l-5.7 15h-4.41l-5.7-15h4.26l3.63 10.5 3.66-10.5z" fill="#fff"/></svg>