<svg width="569" height="432" fill="none" xmlns="http://www.w3.org/2000/svg"><rect x="2" width="567" height="432" rx="20" fill="#fff"/><mask id="a" style="mask-type:alpha" maskUnits="userSpaceOnUse" x="2" y="0" width="567" height="432"><path d="M2 20C2 8.954 10.954 0 22 0h527c11.046 0 20 8.954 20 20v392c0 11.046-8.954 20-20 20H22c-11.046 0-20-8.954-20-20V20z" fill="#fff"/></mask><g mask="url(#a)"><g filter="url(#filter0_d_710_245)"><rect x="219" y="84" width="308.401" height="363" rx="20" fill="#fff"/></g><rect x="306.869" y="121.537" width="112.184" height="4.266" rx="2.133" fill="#DFDFDF"/><rect x="306.869" y="121.537" width="112.184" height="4.266" rx="2.133" fill="#DFDFDF"/><rect x="306.869" y="137.746" width="146.736" height="3.839" rx="1.92" fill="#DFDFDF"/><rect x="306.869" y="137.746" width="146.736" height="3.839" rx="1.92" fill="#DFDFDF"/><rect x="307.725" y="178.696" width="131.806" height="4.266" rx="2.133" fill="#DFDFDF"/><rect x="307.725" y="178.696" width="131.806" height="4.266" rx="2.133" fill="#DFDFDF"/><rect x="243.314" y="195.331" width="260.2" height="3.839" rx="1.92" fill="#DFDFDF"/><rect x="243.314" y="195.331" width="260.2" height="3.839" rx="1.92" fill="#DFDFDF"/><rect x="243.314" y="207.702" width="260.2" height="3.839" rx="1.92" fill="#DFDFDF"/><rect x="243.314" y="207.702" width="260.2" height="3.839" rx="1.92" fill="#DFDFDF"/><rect x="243.314" y="219.646" width="260.2" height="3.839" rx="1.92" fill="#DFDFDF"/><rect x="243.314" y="219.646" width="260.2" height="3.839" rx="1.92" fill="#DFDFDF"/><rect x="243.314" y="231.589" width="260.2" height="4.266" rx="2.133" fill="#DFDFDF"/><rect x="243.314" y="231.589" width="260.2" height="4.266" rx="2.133" fill="#DFDFDF"/><rect x="243.314" y="243.959" width="260.2" height="4.266" rx="2.133" fill="#DFDFDF"/><rect x="243.314" y="243.959" width="260.2" height="4.266" rx="2.133" fill="#DFDFDF"/><rect x="243.314" y="256.329" width="260.2" height="4.266" rx="2.133" fill="#DFDFDF"/><rect x="243.314" y="256.329" width="260.2" height="4.266" rx="2.133" fill="#DFDFDF"/><rect x="243.314" y="268.273" width="260.2" height="4.266" rx="2.133" fill="#DFDFDF"/><rect x="243.314" y="268.273" width="260.2" height="4.266" rx="2.133" fill="#DFDFDF"/><rect x="243.314" y="280.643" width="260.2" height="4.266" rx="2.133" fill="#DFDFDF"/><rect x="243.314" y="280.643" width="260.2" height="4.266" rx="2.133" fill="#DFDFDF"/><rect x="243.314" y="293.013" width="260.2" height="4.266" rx="2.133" fill="#DFDFDF"/><rect x="243.314" y="293.013" width="260.2" height="4.266" rx="2.133" fill="#DFDFDF"/><rect x="243.314" y="305.383" width="260.2" height="4.266" rx="2.133" fill="#DFDFDF"/><rect x="243.314" y="305.383" width="260.2" height="4.266" rx="2.133" fill="#DFDFDF"/><rect x="243.314" y="317.327" width="260.2" height="3.839" rx="1.92" fill="#DFDFDF"/><rect x="243.314" y="317.327" width="260.2" height="3.839" rx="1.92" fill="#DFDFDF"/><rect x="243.314" y="329.697" width="260.2" height="3.839" rx="1.92" fill="#DFDFDF"/><rect x="243.314" y="329.697" width="260.2" height="3.839" rx="1.92" fill="#DFDFDF"/><rect x="243.314" y="342.067" width="260.2" height="3.839" rx="1.92" fill="#DFDFDF"/><rect x="243.314" y="342.067" width="260.2" height="3.839" rx="1.92" fill="#DFDFDF"/><rect x="243.314" y="354.438" width="260.2" height="3.839" rx="1.92" fill="#DFDFDF"/><rect x="243.314" y="354.438" width="260.2" height="3.839" rx="1.92" fill="#DFDFDF"/><rect x="243.314" y="366.381" width="260.2" height="3.839" rx="1.92" fill="#DFDFDF"/><rect x="243.314" y="366.381" width="260.2" height="3.839" rx="1.92" fill="#DFDFDF"/><rect x="243.314" y="378.325" width="260.2" height="4.266" rx="2.133" fill="#DFDFDF"/><rect x="243.314" y="378.325" width="260.2" height="4.266" rx="2.133" fill="#DFDFDF"/><rect x="243.314" y="390.695" width="260.2" height="4.266" rx="2.133" fill="#DFDFDF"/><rect x="243.314" y="390.695" width="260.2" height="4.266" rx="2.133" fill="#DFDFDF"/><rect x="243.314" y="403.065" width="260.2" height="3.839" rx="1.92" fill="#DFDFDF"/><rect x="243.314" y="403.065" width="260.2" height="3.839" rx="1.92" fill="#DFDFDF"/><rect x="243.314" y="423.113" width="64.837" height="4.266" rx="2.133" fill="#DFDFDF"/><rect x="243.314" y="423.113" width="64.837" height="4.266" rx="2.133" fill="#DFDFDF"/><rect x="405.408" y="423.113" width="98.108" height="4.266" rx="2.133" fill="#DFDFDF"/><rect x="405.408" y="423.113" width="98.108" height="4.266" rx="2.133" fill="#DFDFDF"/><ellipse cx="267.416" cy="131.348" rx="24.527" ry="24.74" fill="#5C6CF9"/></g><path d="M240.17 272.059c44.214-44.649 44.214-117.04 0-161.69-44.214-44.649-115.899-44.649-160.113 0-44.215 44.65-44.215 117.04 0 161.69 44.214 44.649 115.899 44.649 160.113 0z" fill="#1B1A59"/><path d="M160.117 288.792c53.365 0 96.627-43.687 96.627-97.578 0-53.891-43.262-97.578-96.627-97.578-53.366 0-96.627 43.687-96.627 97.578 0 53.891 43.261 97.578 96.627 97.578z" fill="url(#paint0_linear_710_245)"/><path d="M160.117 293.68c-55.949 0-101.467-45.966-101.467-102.466 0-56.5 45.518-102.466 101.467-102.466 55.95 0 101.467 45.966 101.467 102.466 0 56.5-45.517 102.466-101.467 102.466zm0-200.046c-53.28 0-96.626 43.774-96.626 97.578 0 53.807 43.346 97.578 96.626 97.578 53.28 0 96.627-43.773 96.627-97.578 0-53.804-43.347-97.578-96.627-97.578z" fill="#1B1A59"/><path d="M160.118 250.703c32.535 0 58.91-26.634 58.91-59.489s-26.375-59.489-58.91-59.489c-32.534 0-58.909 26.634-58.909 59.489s26.375 59.489 58.909 59.489z" fill="url(#paint1_linear_710_245)"/><path d="M160.117 255.589c-35.15 0-63.748-28.879-63.748-64.377 0-35.498 28.596-64.375 63.748-64.375s63.747 28.879 63.747 64.375c0 35.496-28.597 64.377-63.747 64.377zm0-118.976c-29.814 0-54.069 24.494-54.069 54.601s24.255 54.601 54.069 54.601c29.813 0 54.069-24.494 54.069-54.601s-24.256-54.601-54.069-54.601z" fill="#fff"/><path d="M160.114 214.262c12.605 0 22.823-10.319 22.823-23.048 0-12.729-10.218-23.047-22.823-23.047s-22.823 10.318-22.823 23.047c0 12.729 10.218 23.048 22.823 23.048z" fill="url(#paint2_linear_710_245)"/><path d="M160.114 219.148c-15.253 0-27.663-12.532-27.663-27.936 0-15.403 12.41-27.935 27.663-27.935s27.664 12.532 27.664 27.935c0 15.404-12.411 27.936-27.664 27.936zm0-46.095c-9.916 0-17.982 8.145-17.982 18.159s8.066 18.16 17.982 18.16c9.917 0 17.983-8.146 17.983-18.16 0-10.012-8.066-18.159-17.983-18.159z" fill="#fff"/><path d="M318.358 71.408l2.569 3.5-131.284 98.257-2.569-3.502 131.284-98.255z" fill="#20147B"/><path d="M190.292 162.63c1.99-1.488 8.939 7.98 6.949 9.469l-33.815 19.491c-1.25.72-2.483-.961-1.437-1.96l28.303-27zm130.557-87.665l15.149 3.853-24.246 18.147a32.736 32.736 0 01-27.699 5.541l36.796-27.54zm-2.571-3.502l.757-15.756-24.246 18.147c-7.944 5.946-12.829 15.176-13.309 25.15l36.798-27.54z" fill="#4EAFD7"/><defs><linearGradient id="paint0_linear_710_245" x1="244.297" y1="78.35" x2="24.001" y2="367.977" gradientUnits="userSpaceOnUse"><stop stop-color="#6B4BDC"/><stop offset="1" stop-color="#474A9D"/></linearGradient><linearGradient id="paint1_linear_710_245" x1="211.439" y1="122.405" x2="77.134" y2="298.979" gradientUnits="userSpaceOnUse"><stop stop-color="#6B4BDC"/><stop offset="1" stop-color="#474A9D"/></linearGradient><linearGradient id="paint2_linear_710_245" x1="179.997" y1="164.556" x2="127.964" y2="232.965" gradientUnits="userSpaceOnUse"><stop stop-color="#6B4BDC"/><stop offset="1" stop-color="#474A9D"/></linearGradient><filter id="filter0_d_710_245" x="149" y="14" width="448.4" height="503" filterUnits="userSpaceOnUse" color-interpolation-filters="sRGB"><feFlood flood-opacity="0" result="BackgroundImageFix"/><feColorMatrix in="SourceAlpha" values="0 0 0 0 0 0 0 0 0 0 0 0 0 0 0 0 0 0 127 0" result="hardAlpha"/><feOffset/><feGaussianBlur stdDeviation="35"/><feComposite in2="hardAlpha" operator="out"/><feColorMatrix values="0 0 0 0 0.2 0 0 0 0 0.2 0 0 0 0 0.2 0 0 0 0.1 0"/><feBlend in2="BackgroundImageFix" result="effect1_dropShadow_710_245"/><feBlend in="SourceGraphic" in2="effect1_dropShadow_710_245" result="shape"/></filter></defs></svg>