<svg width="44" height="44" fill="none" xmlns="http://www.w3.org/2000/svg"><path fill-rule="evenodd" clip-rule="evenodd" d="M22 3.667c-3.44 0-6.328.182-8.709.71-2.402.534-4.398 1.446-5.933 2.981-1.536 1.536-2.447 3.532-2.981 5.934-.53 2.38-.711 5.27-.711 8.708 0 3.439.182 6.327.711 8.708.534 2.402 1.445 4.398 2.98 5.934 1.536 1.535 3.532 2.447 5.934 2.98 2.381.53 5.27.711 8.708.711 3.44 0 6.328-.181 8.709-.71 2.401-.534 4.398-1.446 5.933-2.981 1.536-1.536 2.447-3.532 2.98-5.934.53-2.38.712-5.27.712-8.708 0-3.439-.182-6.327-.711-8.708-.534-2.402-1.445-4.398-2.98-5.934-1.537-1.535-3.533-2.447-5.935-2.98-2.38-.53-5.269-.711-8.708-.711zm-1.834 9.166a1.834 1.834 0 00-1.833 1.834v5.5h-1.834a1.833 1.833 0 000 3.666h1.834v1.834h-1.834a1.833 1.833 0 000 3.666h1.834v1.834a1.833 1.833 0 003.666 0v-1.834h5.5a1.833 1.833 0 100-3.666H22v-1.834h2.75c1.802 0 3.32-.611 4.39-1.682a5.388 5.388 0 001.569-3.818c0-1.37-.515-2.763-1.568-3.817-1.072-1.07-2.589-1.683-4.39-1.683h-4.584z" fill="#fff"/><path fill-rule="evenodd" clip-rule="evenodd" d="M22 20.167V16.5h2.75c.948 0 1.493.305 1.797.609.322.321.495.761.495 1.224 0 .463-.173.904-.495 1.225-.304.304-.849.609-1.797.609H22z" fill="#fff"/></svg>