<svg width="52" height="52" fill="none" xmlns="http://www.w3.org/2000/svg"><g clip-path="url(#clip0_85_117)" fill="#fff"><path d="M30.36 29.802a1.193 1.193 0 01.831 2.045 1.184 1.184 0 01-.846.345 1.183 1.183 0 01-.843-.354 1.188 1.188 0 01-.346-.847 1.198 1.198 0 011.203-1.189zm10.171-4.62a.782.782 0 01.563.237.777.777 0 01.23.563.779.779 0 01-.237.564.783.783 0 01-.565.23.805.805 0 01-.792-.801.783.783 0 01.237-.563.778.778 0 01.564-.23z"/><path d="M15.92 11.499l20.135.11a3.557 3.557 0 012.53 1.063l10.693 10.819a3.59 3.59 0 01-.03 5.072L38.42 39.264a3.562 3.562 0 01-2.543 1.036l-20.134-.11a3.559 3.559 0 01-2.53-1.063 3.559 3.559 0 01-1.034-2.542l.131-21.519a3.567 3.567 0 011.066-2.531 3.563 3.563 0 012.543-1.036zm24.588 17.668a3.168 3.168 0 002.26-.921c.606-.6.942-1.4.947-2.25a3.163 3.163 0 00-.92-2.259 3.164 3.164 0 00-2.248-.946 3.167 3.167 0 00-2.26.921 3.168 3.168 0 00-.948 2.25 3.164 3.164 0 00.92 2.26 3.165 3.165 0 002.25.945zm-13.743 1.81A3.56 3.56 0 0027.8 33.52a3.558 3.558 0 002.53 1.065 3.563 3.563 0 002.54-1.037 3.565 3.565 0 001.067-2.53 3.588 3.588 0 00-3.564-3.606 3.594 3.594 0 00-3.608 3.567zm-7.398-.886a1.196 1.196 0 101.68 1.7l10.207-10.09a1.196 1.196 0 10-1.68-1.7l-10.207 10.09zm-2.684-9.313a3.56 3.56 0 001.035 2.541v.001a3.559 3.559 0 002.53 1.064 3.563 3.563 0 002.54-1.037 3.565 3.565 0 001.067-2.53 3.588 3.588 0 00-3.564-3.606 3.594 3.594 0 00-3.608 3.567z"/><path d="M20.277 19.603a1.193 1.193 0 01.831 2.045 1.184 1.184 0 01-.845.344 1.182 1.182 0 01-.843-.354 1.189 1.189 0 01-.346-.847 1.198 1.198 0 011.203-1.188z"/></g><defs><clipPath id="clip0_85_117"><path fill="#fff" transform="scale(-1 1) rotate(-45.332 5.278 75.038)" d="M0 0h36.615v36.641H0z"/></clipPath></defs></svg>