<svg width="52" height="52" fill="none" xmlns="http://www.w3.org/2000/svg"><path d="M50.82 12.532a18.644 18.644 0 01-2.361 4.895l.041-.066c-.97 1.618-2.13 3.487-3.477 5.608-1.156 1.674-1.768 2.54-1.836 2.6a2.783 2.783 0 00-.578 1.339l-.002.015c.055.441.26.85.58 1.16l.867.966c4.637 4.765 7.245 8.05 7.824 9.854a1.928 1.928 0 01-.243 1.796l.005-.007a2.09 2.09 0 01-1.699.626h.009-5.712c-.73 0-1.401-.255-1.928-.68l.006.004a15.008 15.008 0 01-2.06-2.054l-.02-.026a64.08 64.08 0 00-2.656-2.849c-2.574-2.447-4.473-3.67-5.698-3.67a1.707 1.707 0 00-1.118.292l.006-.004a1.66 1.66 0 00-.346 1.265v-.008a27.147 27.147 0 00-.083 3.04v-.037 2.51a1.69 1.69 0 01-.576 1.641l-.002.002a6.887 6.887 0 01-3.504.579l.029.002a18.034 18.034 0 01-9.263-2.748l.076.044a25.85 25.85 0 01-8.054-7.638l-.058-.09a57.112 57.112 0 01-5.354-8.65l-.152-.334a53.42 53.42 0 01-2.671-6.07l-.13-.402a14.4 14.4 0 01-.672-3.325l-.004-.055c0-1.094.644-1.642 1.933-1.642h5.698a2.292 2.292 0 011.601.488l-.004-.005a3.9 3.9 0 01.912 1.708l.006.026a55.071 55.071 0 003.439 7.832l-.145-.297a31.546 31.546 0 003.516 5.582l-.05-.067c1.156 1.418 2.057 2.127 2.704 2.127l.07.002a.866.866 0 00.752-.433l.002-.004c.207-.543.29-1.126.24-1.705v.012-8.404a6.958 6.958 0 00-.693-2.745l.017.041a6.41 6.41 0 00-.975-1.506l.007.009a2.38 2.38 0 01-.674-1.341l-.002-.013c0-.369.169-.7.433-.917l.002-.002c.272-.25.628-.387.997-.386h9a1.374 1.374 0 011.211.481l.003.002c.273.506.393 1.08.344 1.654v-.011V23.75c-.035.442.068.884.295 1.265l-.005-.008a.868.868 0 00.722.385c.365-.023.72-.145 1.023-.35l-.007.004a7.671 7.671 0 001.536-1.39l.009-.01a33.825 33.825 0 003.586-4.875l.084-.152a47.779 47.779 0 002.282-4.318l.134-.318.966-1.933a2.431 2.431 0 012.42-1.645h-.006 5.7c1.54 0 2.118.709 1.734 2.126h-.002z" fill="#fff"/></svg>