<svg width="51" height="51" fill="none" xmlns="http://www.w3.org/2000/svg"><path d="M40.48 10.434A20.86 20.86 0 0025.584 4.25c-11.602 0-21.059 9.456-21.059 21.059 0 3.719.978 7.331 2.805 10.519L4.355 46.75l11.157-2.932a21.064 21.064 0 0010.072 2.57c11.603 0 21.059-9.455 21.059-21.058 0-5.631-2.189-10.922-6.163-14.896zM25.584 42.819c-3.145 0-6.226-.85-8.925-2.444l-.637-.382-6.63 1.742 1.764-6.46-.426-.659a17.56 17.56 0 01-2.677-9.307c0-9.648 7.862-17.51 17.51-17.51 4.675 0 9.074 1.827 12.368 5.142a17.389 17.389 0 015.12 12.39c.043 9.647-7.82 17.488-17.467 17.488zm9.605-13.09c-.531-.255-3.123-1.53-3.591-1.721-.489-.17-.829-.255-1.19.255-.361.53-1.36 1.72-1.658 2.06-.297.362-.616.405-1.147.128-.531-.255-2.231-.828-4.229-2.613-1.572-1.403-2.613-3.124-2.932-3.655-.298-.532-.043-.808.233-1.084.234-.234.532-.616.787-.914.255-.297.361-.531.531-.871.17-.361.085-.659-.042-.914-.128-.255-1.19-2.847-1.616-3.91-.425-1.02-.87-.892-1.19-.914h-1.02c-.36 0-.913.128-1.402.66-.467.53-1.827 1.805-1.827 4.398 0 2.592 1.89 5.1 2.146 5.44.255.361 3.718 5.674 8.988 7.947 1.254.553 2.232.872 2.997 1.105 1.253.404 2.401.34 3.315.213 1.02-.149 3.123-1.275 3.549-2.508.446-1.232.446-2.273.297-2.507-.149-.234-.468-.34-.999-.595z" fill="#fff"/></svg>