<svg width="161" height="57" viewBox="0 0 161 57" fill="none" xmlns="http://www.w3.org/2000/svg">
<path d="M84.5799 8.3194V35.9783H77.7374V14.8258H65.8679V35.9783H59.0254V8.3194H84.5799Z" fill="white"/>
<path d="M106.467 8.3194C108.011 8.3194 109.443 8.58497 110.765 9.1161C112.086 9.64724 113.21 10.4041 114.149 11.3734C115.088 12.3428 115.841 13.498 116.385 14.8524C116.928 16.2068 117.2 17.694 117.2 19.3272C117.2 20.9604 116.928 22.4476 116.385 23.7755C115.841 25.1033 115.1 26.2453 114.161 27.1747C113.223 28.1042 112.086 28.8213 110.777 29.3258C109.468 29.8304 108.035 30.0827 106.479 30.0827H98.1297V35.9916H91.2871V8.3194H106.467ZM98.1173 23.3771H106.207C107.418 23.3771 108.406 23.0452 109.184 22.3812C109.962 21.7173 110.345 20.6949 110.345 19.3272C110.345 17.9994 109.962 16.9371 109.184 16.1802C108.406 15.4101 107.418 15.025 106.207 15.025H98.1173V23.3771Z" fill="white"/>
<path d="M151.857 22.1688C151.857 24.3332 151.462 26.3117 150.671 28.091C149.881 29.8703 148.831 31.3973 147.509 32.672C146.188 33.9335 144.656 34.9293 142.915 35.6198C141.161 36.3236 139.333 36.6688 137.406 36.6688C135.479 36.6688 133.651 36.3236 131.897 35.6198C130.143 34.9161 128.612 33.9335 127.303 32.672C125.981 31.4106 124.931 29.8835 124.141 28.091C123.35 26.3117 122.955 24.3332 122.955 22.1688C122.955 20.0044 123.35 18.0259 124.141 16.2466C124.931 14.4673 125.981 12.9403 127.303 11.6656C128.624 10.4041 130.156 9.40823 131.897 8.71775C133.651 8.014 135.479 7.66876 137.406 7.66876C139.32 7.66876 141.161 8.014 142.915 8.71775C144.668 9.42151 146.2 10.4041 147.509 11.6656C148.831 12.927 149.881 14.454 150.671 16.2466C151.462 18.0259 151.857 20.0044 151.857 22.1688ZM129.81 22.1688C129.81 23.4302 130.008 24.5722 130.39 25.5946C130.773 26.6171 131.317 27.4802 132.021 28.1972C132.725 28.9142 133.528 29.4586 134.442 29.8437C135.356 30.2288 136.356 30.4147 137.443 30.4147C138.493 30.4147 139.493 30.2288 140.42 29.8437C141.346 29.4586 142.161 28.9142 142.84 28.1972C143.52 27.4802 144.063 26.6171 144.446 25.5946C144.829 24.5722 145.027 23.4302 145.027 22.1688C145.027 20.9073 144.829 19.7654 144.446 18.743C144.063 17.7205 143.52 16.8574 142.84 16.1404C142.161 15.4234 141.346 14.8789 140.42 14.4939C139.493 14.1088 138.493 13.9229 137.443 13.9229C136.356 13.9229 135.356 14.1088 134.442 14.4939C133.528 14.8789 132.725 15.4234 132.021 16.1404C131.317 16.8574 130.786 17.7205 130.39 18.743C129.995 19.7654 129.81 20.9073 129.81 22.1688Z" fill="white"/>
<path d="M66.3388 45.6051C66.3388 46.269 66.2153 46.8798 65.9806 47.4243C65.7336 47.9687 65.4125 48.4467 65.0049 48.8318C64.5973 49.2168 64.128 49.5222 63.5969 49.7347C63.0534 49.9471 62.4976 50.0534 61.9048 50.0534C61.3119 50.0534 60.7561 49.9471 60.2127 49.7347C59.6692 49.5222 59.1999 49.2168 58.8046 48.8318C58.397 48.4467 58.0759 47.9687 57.8289 47.4243C57.5819 46.8798 57.4707 46.269 57.4707 45.6051C57.4707 44.9412 57.5942 44.3304 57.8289 43.786C58.0759 43.2415 58.397 42.7635 58.8046 42.3785C59.2122 41.9934 59.6816 41.688 60.2127 41.4755C60.7438 41.2631 61.3119 41.1568 61.9048 41.1568C62.4976 41.1568 63.0534 41.2631 63.5969 41.4755C64.128 41.688 64.6097 41.9934 65.0049 42.3785C65.4125 42.7635 65.7336 43.2415 65.9806 43.786C66.2153 44.3304 66.3388 44.9412 66.3388 45.6051ZM59.5704 45.6051C59.5704 45.9902 59.6321 46.3487 59.7433 46.6541C59.8668 46.9728 60.0274 47.2383 60.2374 47.4508C60.4473 47.6765 60.6943 47.8359 60.9784 47.9554C61.2625 48.0749 61.5713 48.128 61.9048 48.128C62.2259 48.128 62.5347 48.0749 62.8187 47.9554C63.1028 47.8359 63.3498 47.6633 63.5598 47.4508C63.7698 47.2251 63.9304 46.9595 64.0539 46.6541C64.1774 46.3354 64.2268 45.9902 64.2268 45.6051C64.2268 45.22 64.165 44.8615 64.0539 44.5561C63.9304 44.2374 63.7698 43.9719 63.5598 43.7594C63.3498 43.5337 63.1028 43.3743 62.8187 43.2548C62.5347 43.1353 62.2259 43.0822 61.9048 43.0822C61.5713 43.0822 61.2625 43.1353 60.9784 43.2548C60.6943 43.3743 60.4473 43.5469 60.2374 43.7594C60.0274 43.9851 59.8545 44.2507 59.7433 44.5561C59.6321 44.8615 59.5704 45.2067 59.5704 45.6051Z" fill="#5C6CF9"/>
<path d="M74.5501 41.3428V43.3744H69.7208V44.0384H72.6974C73.105 44.0384 73.4879 44.1047 73.8337 44.2508C74.1796 44.3969 74.476 44.596 74.723 44.8483C74.97 45.1006 75.1676 45.406 75.3035 45.7513C75.4394 46.0965 75.5135 46.4816 75.5135 46.8932C75.5135 47.2916 75.4394 47.6766 75.3035 48.0352C75.1676 48.3937 74.97 48.7124 74.723 48.9779C74.476 49.2435 74.1796 49.456 73.8337 49.6153C73.4879 49.7746 73.105 49.8543 72.6974 49.8543H67.6211V41.3561H74.5501V41.3428ZM69.7208 47.8094H72.5616C72.8827 47.8094 73.105 47.7165 73.2285 47.5438C73.352 47.3712 73.4014 47.1455 73.4014 46.8932C73.4014 46.6542 73.3397 46.455 73.2162 46.2824C73.0927 46.1098 72.8703 46.0301 72.5492 46.0301H69.7208V47.8094Z" fill="#5C6CF9"/>
<path d="M81.2469 41.3428C81.7162 41.3428 82.1608 41.4225 82.5684 41.5951C82.976 41.7545 83.3218 41.9935 83.6059 42.2856C83.89 42.5777 84.1247 42.9362 84.2852 43.3479C84.4458 43.7595 84.5323 44.2243 84.5323 44.7288C84.5323 45.2334 84.4458 45.6849 84.2852 46.0965C84.1247 46.5081 83.89 46.8534 83.6059 47.1455C83.3218 47.4376 82.9637 47.6501 82.5684 47.8094C82.1608 47.9688 81.7286 48.0352 81.2469 48.0352H78.6778V49.841H76.5781V41.3428H81.2469ZM78.6902 45.9637H81.1727C81.5433 45.9637 81.8521 45.8575 82.0867 45.6583C82.3214 45.4591 82.4449 45.1405 82.4449 44.7156C82.4449 44.3039 82.3214 43.9852 82.0867 43.7462C81.8521 43.5072 81.5433 43.3877 81.1727 43.3877H78.6902V45.9637Z" fill="#5C6CF9"/>
<path d="M91.2871 41.3428L94.6466 49.841H92.4234L91.9293 48.5928H87.557L87.0753 49.841H84.8027L88.2364 41.3428H91.2871ZM88.3105 46.6276H91.1018L89.9038 43.3611H89.5703L88.3105 46.6276Z" fill="#5C6CF9"/>
<path d="M100.835 44.4234C100.983 44.4234 101.069 44.3836 101.131 44.2906C101.18 44.1977 101.205 44.0782 101.205 43.9321C101.205 43.6798 101.057 43.4806 100.773 43.3346C100.489 43.1885 100.044 43.1221 99.4389 43.1221C99.0807 43.1221 98.7596 43.1354 98.4879 43.162C98.2162 43.1885 97.9691 43.2284 97.7345 43.2947C97.4998 43.3611 97.2775 43.4541 97.0675 43.5736C96.8452 43.6931 96.6105 43.8392 96.3511 44.0118L95.4742 42.4051C95.7953 42.1528 96.1165 41.9536 96.4252 41.7943C96.734 41.635 97.0428 41.5022 97.3639 41.4092C97.6851 41.3163 98.0062 41.2366 98.3397 41.1968C98.6732 41.1569 99.019 41.1304 99.3772 41.1304C100.81 41.1304 101.86 41.4092 102.502 41.9802C103.033 42.4317 103.305 43.0557 103.305 43.8657C103.305 44.1047 103.268 44.3305 103.181 44.5562C103.095 44.7819 102.984 44.9545 102.835 45.0741C103.144 45.3131 103.379 45.5786 103.552 45.8973C103.712 46.216 103.799 46.6011 103.799 47.0924C103.799 47.5306 103.7 47.9289 103.515 48.2874C103.33 48.646 103.058 48.9646 102.712 49.2435C102.341 49.5356 101.884 49.7481 101.329 49.8676C100.773 49.9871 100.143 50.0402 99.4513 50.0402C99.0066 50.0402 98.5867 50.0136 98.2162 49.9605C97.8456 49.9074 97.4874 49.8277 97.154 49.7215C96.8205 49.6153 96.4994 49.4692 96.1782 49.2966C95.8571 49.124 95.536 48.9115 95.2148 48.6725L96.1782 47.0127C96.6599 47.3447 97.1663 47.6102 97.7345 47.7829C98.2903 47.9688 98.8955 48.0484 99.5501 48.0484C99.8712 48.0484 100.168 48.0351 100.439 48.0086C100.711 47.982 100.933 47.9289 101.131 47.8492C101.329 47.7696 101.465 47.6633 101.563 47.5173C101.662 47.3712 101.724 47.1986 101.724 46.9861C101.724 46.7737 101.662 46.6144 101.526 46.5214C101.39 46.4285 101.156 46.3886 100.798 46.3886H97.5986V44.4101H100.835V44.4234Z" fill="#5C6CF9"/>
<path d="M113.804 45.6051C113.804 46.269 113.68 46.8798 113.445 47.4243C113.198 47.9687 112.877 48.4467 112.47 48.8318C112.062 49.2168 111.593 49.5222 111.062 49.7347C110.518 49.9471 109.962 50.0534 109.37 50.0534C108.777 50.0534 108.221 49.9471 107.677 49.7347C107.134 49.5222 106.665 49.2168 106.269 48.8318C105.862 48.4467 105.541 47.9687 105.294 47.4243C105.047 46.8798 104.936 46.269 104.936 45.6051C104.936 44.9412 105.059 44.3304 105.294 43.786C105.541 43.2415 105.862 42.7635 106.269 42.3785C106.677 41.9934 107.146 41.688 107.677 41.4755C108.209 41.2631 108.777 41.1568 109.37 41.1568C109.962 41.1568 110.518 41.2631 111.062 41.4755C111.593 41.688 112.075 41.9934 112.47 42.3785C112.877 42.7635 113.198 43.2415 113.445 43.786C113.68 44.3304 113.804 44.9412 113.804 45.6051ZM107.035 45.6051C107.035 45.9902 107.097 46.3487 107.208 46.6541C107.332 46.9728 107.492 47.2383 107.702 47.4508C107.912 47.6765 108.159 47.8359 108.443 47.9554C108.727 48.0749 109.036 48.128 109.37 48.128C109.691 48.128 110 48.0749 110.284 47.9554C110.568 47.8359 110.815 47.6633 111.025 47.4508C111.235 47.2251 111.395 46.9595 111.519 46.6541C111.642 46.3354 111.692 45.9902 111.692 45.6051C111.692 45.22 111.63 44.8615 111.519 44.5561C111.395 44.2374 111.235 43.9719 111.025 43.7594C110.815 43.5337 110.568 43.3743 110.284 43.2548C110 43.1353 109.691 43.0822 109.37 43.0822C109.036 43.0822 108.727 43.1353 108.443 43.2548C108.159 43.3743 107.912 43.5469 107.702 43.7594C107.492 43.9851 107.319 44.2507 107.208 44.5561C107.085 44.8615 107.035 45.2067 107.035 45.6051Z" fill="#5C6CF9"/>
<path d="M120.216 41.3428C120.574 41.3428 120.895 41.396 121.204 41.5155C121.512 41.6217 121.772 41.781 121.994 41.9935C122.216 42.1927 122.389 42.4449 122.513 42.7371C122.636 43.0292 122.698 43.3479 122.698 43.7064C122.698 43.972 122.649 44.2243 122.562 44.4633C122.476 44.7023 122.328 44.9015 122.142 45.0342C122.488 45.2467 122.748 45.5255 122.945 45.8575C123.13 46.1895 123.229 46.6276 123.229 47.1721C123.229 47.5439 123.168 47.8891 123.032 48.2211C122.896 48.553 122.711 48.8319 122.476 49.0709C122.241 49.3099 121.969 49.4958 121.648 49.6418C121.327 49.7879 120.994 49.8543 120.636 49.8543H115.09V41.3561H120.216V41.3428ZM117.19 44.5164H120.203C120.302 44.5164 120.401 44.4633 120.5 44.3438C120.586 44.2242 120.636 44.0915 120.636 43.9454C120.636 43.8392 120.598 43.7064 120.524 43.5736C120.45 43.4408 120.327 43.3744 120.129 43.3744H117.19V44.5164ZM117.19 47.8094H120.574C120.734 47.8094 120.87 47.7563 120.994 47.6368C121.105 47.5173 121.167 47.358 121.167 47.1588C121.167 46.9596 121.105 46.8003 120.994 46.6675C120.87 46.5347 120.722 46.4683 120.524 46.4683H117.19V47.8094Z" fill="#5C6CF9"/>
<path d="M130.118 41.3428L133.478 49.841H131.255L130.761 48.5928H126.388L125.907 49.841H123.646L127.08 41.3428H130.118ZM127.142 46.6276H129.933L128.735 43.3611H128.402L127.142 46.6276Z" fill="#5C6CF9"/>
<path d="M136.629 41.3428V44.45H140.495V41.3428H142.595V49.841H140.495V46.4816H136.629V49.841H134.529V41.3428H136.629Z" fill="#5C6CF9"/>
<path d="M146.053 41.3428V46.7339L150.19 41.3428H152.204V49.841H150.104V44.4765L145.966 49.841H143.953V41.3428H146.053Z" fill="#5C6CF9"/>
<path d="M160.814 41.3428V43.3744H155.639V44.5297H160.283V46.5613H155.639V47.7563H160.999V49.841H153.539V41.3428H160.814Z" fill="#5C6CF9"/>
<path d="M24.2824 26.7233L31.7301 0.0469971L7.44775 9.75351L0 36.4299L24.2824 26.7233Z" fill="#5A4ADD"/>
<path d="M25.677 31.7691L37.423 6.95178L11.9178 11.8515L0.171875 36.6689L25.677 31.7691Z" fill="#222169"/>
<path d="M26.209 37.0141L41.8826 14.8524L15.9822 14.7728L0.308594 36.9344L26.209 37.0141Z" fill="#6695DE"/>
<path d="M25.8632 42.2723L44.9705 23.4701L19.49 18.4243L0.382812 37.2398L25.8632 42.2723Z" fill="#222169"/>
<path d="M24.6529 47.3846L46.5638 32.5393L22.3309 22.7L0.419922 37.5453L24.6529 47.3846Z" fill="#6695DE"/>
<path d="M22.6162 52.1781L46.6392 41.7678L24.4318 27.4404L0.396484 37.8506L22.6162 52.1781Z" fill="#222169"/>
<path d="M19.8098 56.5068L45.1791 50.8768L25.7013 32.5128L0.332031 38.1428L19.8098 56.5068Z" fill="#5A4ADD"/>
<path opacity="0.2" d="M45.1791 50.8768C45.1791 50.8768 37.3855 51.1423 23.5028 44.45C9.43483 37.6648 0.332031 38.1561 0.332031 38.1561L25.7013 32.526L45.1791 50.8768Z" fill="#3100A2"/>
</svg>
