<svg width="147" height="23" viewBox="0 0 147 23" fill="none" xmlns="http://www.w3.org/2000/svg">
<path d="M17.36 22H12.59L5.09 12.16V22H0.95V0.999999H5.09V10.27L12.29 0.999999H17.06L9.29 11.2L17.36 22Z" fill="#FF174E"/>
<path d="M32.007 20.14C30.467 21.66 28.587 22.42 26.367 22.42C24.147 22.42 22.267 21.66 20.727 20.14C19.207 18.6 18.447 16.72 18.447 14.5C18.447 12.28 19.207 10.41 20.727 8.89C22.267 7.35 24.147 6.58 26.367 6.58C28.587 6.58 30.467 7.35 32.007 8.89C33.547 10.41 34.317 12.28 34.317 14.5C34.317 16.72 33.547 18.6 32.007 20.14ZM23.457 17.47C24.237 18.25 25.207 18.64 26.367 18.64C27.527 18.64 28.497 18.25 29.277 17.47C30.057 16.69 30.447 15.7 30.447 14.5C30.447 13.3 30.057 12.31 29.277 11.53C28.497 10.75 27.527 10.36 26.367 10.36C25.207 10.36 24.237 10.75 23.457 11.53C22.697 12.31 22.317 13.3 22.317 14.5C22.317 15.7 22.697 16.69 23.457 17.47ZM37.0395 22V0.0999994H40.9095V22H37.0395ZM47.7216 16.09C48.2416 17.97 49.6516 18.91 51.9516 18.91C53.4316 18.91 54.5516 18.41 55.3116 17.41L58.4316 19.21C56.9516 21.35 54.7716 22.42 51.8916 22.42C49.4116 22.42 47.4216 21.67 45.9216 20.17C44.4216 18.67 43.6716 16.78 43.6716 14.5C43.6716 12.24 44.4116 10.36 45.8916 8.86C47.3716 7.34 49.2716 6.58 51.5916 6.58C53.7916 6.58 55.6016 7.34 57.0216 8.86C58.4616 10.38 59.1816 12.26 59.1816 14.5C59.1816 15 59.1316 15.53 59.0316 16.09H47.7216ZM47.6616 13.09H55.3116C55.0916 12.07 54.6316 11.31 53.9316 10.81C53.2516 10.31 52.4716 10.06 51.5916 10.06C50.5516 10.06 49.6916 10.33 49.0116 10.87C48.3316 11.39 47.8816 12.13 47.6616 13.09ZM64.8673 11.26C64.8673 11.66 65.1273 11.99 65.6473 12.25C66.1873 12.49 66.8373 12.71 67.5973 12.91C68.3573 13.09 69.1173 13.33 69.8773 13.63C70.6373 13.91 71.2773 14.39 71.7973 15.07C72.3373 15.75 72.6073 16.6 72.6073 17.62C72.6073 19.16 72.0273 20.35 70.8673 21.19C69.7273 22.01 68.2973 22.42 66.5773 22.42C63.4973 22.42 61.3973 21.23 60.2773 18.85L63.6373 16.96C64.0773 18.26 65.0573 18.91 66.5773 18.91C67.9573 18.91 68.6473 18.48 68.6473 17.62C68.6473 17.22 68.3773 16.9 67.8373 16.66C67.3173 16.4 66.6773 16.17 65.9173 15.97C65.1573 15.77 64.3973 15.52 63.6373 15.22C62.8773 14.92 62.2273 14.45 61.6873 13.81C61.1673 13.15 60.9073 12.33 60.9073 11.35C60.9073 9.87 61.4473 8.71 62.5273 7.87C63.6273 7.01 64.9873 6.58 66.6073 6.58C67.8273 6.58 68.9373 6.86 69.9373 7.42C70.9373 7.96 71.7273 8.74 72.3073 9.76L69.0073 11.56C68.5273 10.54 67.7273 10.03 66.6073 10.03C66.1073 10.03 65.6873 10.14 65.3473 10.36C65.0273 10.58 64.8673 10.88 64.8673 11.26ZM83.5827 6.58C85.2227 6.58 86.5727 7.13 87.6327 8.23C88.7127 9.33 89.2527 10.85 89.2527 12.79V22H85.3827V13.27C85.3827 12.27 85.1127 11.51 84.5727 10.99C84.0327 10.45 83.3127 10.18 82.4127 10.18C81.4127 10.18 80.6127 10.49 80.0127 11.11C79.4127 11.73 79.1127 12.66 79.1127 13.9V22H75.2427V7H79.1127V8.68C80.0527 7.28 81.5427 6.58 83.5827 6.58ZM94.4771 5.2C93.8371 5.2 93.2771 4.97 92.7971 4.51C92.3371 4.03 92.1071 3.47 92.1071 2.83C92.1071 2.19 92.3371 1.63 92.7971 1.15C93.2771 0.669999 93.8371 0.429999 94.4771 0.429999C95.1371 0.429999 95.6971 0.669999 96.1571 1.15C96.6371 1.63 96.8771 2.19 96.8771 2.83C96.8771 3.47 96.6371 4.03 96.1571 4.51C95.6971 4.97 95.1371 5.2 94.4771 5.2ZM92.5571 22V7H96.4271V22H92.5571ZM113.799 22H109.299L103.839 15.19V22H99.9692V0.999999H103.839V13.6L108.999 7H113.619L107.589 14.41L113.799 22ZM127.427 20.14C125.887 21.66 124.007 22.42 121.787 22.42C119.567 22.42 117.687 21.66 116.147 20.14C114.627 18.6 113.867 16.72 113.867 14.5C113.867 12.28 114.627 10.41 116.147 8.89C117.687 7.35 119.567 6.58 121.787 6.58C124.007 6.58 125.887 7.35 127.427 8.89C128.967 10.41 129.737 12.28 129.737 14.5C129.737 16.72 128.967 18.6 127.427 20.14ZM118.877 17.47C119.657 18.25 120.627 18.64 121.787 18.64C122.947 18.64 123.917 18.25 124.697 17.47C125.477 16.69 125.867 15.7 125.867 14.5C125.867 13.3 125.477 12.31 124.697 11.53C123.917 10.75 122.947 10.36 121.787 10.36C120.627 10.36 119.657 10.75 118.877 11.53C118.117 12.31 117.737 13.3 117.737 14.5C117.737 15.7 118.117 16.69 118.877 17.47ZM141.744 7H146.004L140.304 22H135.894L130.194 7H134.454L138.084 17.5L141.744 7Z" fill="white"/>
</svg>
