<svg width="28" height="28" viewBox="0 0 28 28" fill="none" xmlns="http://www.w3.org/2000/svg">
<path d="M23.334 9.33341L14.0007 15.1667L4.66732 9.33341V7.00008L14.0007 12.8334L23.334 7.00008M23.334 4.66675H4.66732C3.37232 4.66675 2.33398 5.70508 2.33398 7.00008V21.0001C2.33398 21.6189 2.57982 22.2124 3.0174 22.65C3.45499 23.0876 4.04848 23.3334 4.66732 23.3334H23.334C23.9528 23.3334 24.5463 23.0876 24.9839 22.65C25.4215 22.2124 25.6673 21.6189 25.6673 21.0001V7.00008C25.6673 6.38124 25.4215 5.78775 24.9839 5.35017C24.5463 4.91258 23.9528 4.66675 23.334 4.66675Z" fill="white"/>
</svg>
