<svg width="29" height="29" viewBox="0 0 29 29" fill="none" xmlns="http://www.w3.org/2000/svg">
<path d="M14.4873 2.41675C7.81727 2.41675 2.41602 7.83008 2.41602 14.5001C2.41602 21.1701 7.81727 26.5834 14.4873 26.5834C21.1693 26.5834 26.5827 21.1701 26.5827 14.5001C26.5827 7.83008 21.1693 2.41675 14.4873 2.41675ZM19.3327 19.3334C19.2209 19.4454 19.0881 19.5343 18.9419 19.5949C18.7958 19.6556 18.6391 19.6868 18.4808 19.6868C18.3226 19.6868 18.1659 19.6556 18.0197 19.5949C17.8735 19.5343 17.7407 19.4454 17.6289 19.3334L13.6535 15.358C13.5393 15.2461 13.4485 15.1126 13.3863 14.9654C13.3241 14.8181 13.2917 14.66 13.291 14.5001V9.66675C13.291 9.00216 13.8348 8.45841 14.4993 8.45841C15.1639 8.45841 15.7077 9.00216 15.7077 9.66675V14.0047L19.3327 17.6297C19.8039 18.1009 19.8039 18.8622 19.3327 19.3334Z" fill="white"/>
</svg>
