<svg width="569" height="432" viewBox="0 0 569 432" fill="none" xmlns="http://www.w3.org/2000/svg">
<rect x="2" width="567" height="432" rx="20" fill="white"/>
<mask id="mask0_710_245" style="mask-type:alpha" maskUnits="userSpaceOnUse" x="2" y="0" width="567" height="432">
<path d="M2 20C2 8.95431 10.9543 0 22 0H549C560.046 0 569 8.95431 569 20V412C569 423.046 560.046 432 549 432H22C10.9543 432 2 423.046 2 412V20Z" fill="white"/>
</mask>
<g mask="url(#mask0_710_245)">
<g filter="url(#filter0_d_710_245)">
<rect x="219" y="84" width="308.401" height="363" rx="20" fill="white"/>
</g>
<rect x="306.869" y="121.537" width="112.184" height="4.26557" rx="2.13279" fill="#DFDFDF"/>
<rect x="306.869" y="121.537" width="112.184" height="4.26557" rx="2.13279" fill="#DFDFDF"/>
<rect x="306.869" y="137.746" width="146.736" height="3.83901" rx="1.91951" fill="#DFDFDF"/>
<rect x="306.869" y="137.746" width="146.736" height="3.83901" rx="1.91951" fill="#DFDFDF"/>
<rect x="307.725" y="178.696" width="131.806" height="4.26557" rx="2.13279" fill="#DFDFDF"/>
<rect x="307.725" y="178.696" width="131.806" height="4.26557" rx="2.13279" fill="#DFDFDF"/>
<rect x="243.314" y="195.331" width="260.2" height="3.83901" rx="1.91951" fill="#DFDFDF"/>
<rect x="243.314" y="195.331" width="260.2" height="3.83901" rx="1.91951" fill="#DFDFDF"/>
<rect x="243.314" y="207.702" width="260.2" height="3.83901" rx="1.91951" fill="#DFDFDF"/>
<rect x="243.314" y="207.702" width="260.2" height="3.83901" rx="1.91951" fill="#DFDFDF"/>
<rect x="243.314" y="219.646" width="260.2" height="3.83901" rx="1.91951" fill="#DFDFDF"/>
<rect x="243.314" y="219.646" width="260.2" height="3.83901" rx="1.91951" fill="#DFDFDF"/>
<rect x="243.314" y="231.589" width="260.2" height="4.26557" rx="2.13279" fill="#DFDFDF"/>
<rect x="243.314" y="231.589" width="260.2" height="4.26557" rx="2.13279" fill="#DFDFDF"/>
<rect x="243.314" y="243.959" width="260.2" height="4.26557" rx="2.13279" fill="#DFDFDF"/>
<rect x="243.314" y="243.959" width="260.2" height="4.26557" rx="2.13279" fill="#DFDFDF"/>
<rect x="243.314" y="256.329" width="260.2" height="4.26557" rx="2.13279" fill="#DFDFDF"/>
<rect x="243.314" y="256.329" width="260.2" height="4.26557" rx="2.13279" fill="#DFDFDF"/>
<rect x="243.314" y="268.273" width="260.2" height="4.26557" rx="2.13279" fill="#DFDFDF"/>
<rect x="243.314" y="268.273" width="260.2" height="4.26557" rx="2.13279" fill="#DFDFDF"/>
<rect x="243.314" y="280.643" width="260.2" height="4.26557" rx="2.13279" fill="#DFDFDF"/>
<rect x="243.314" y="280.643" width="260.2" height="4.26557" rx="2.13279" fill="#DFDFDF"/>
<rect x="243.314" y="293.013" width="260.2" height="4.26557" rx="2.13279" fill="#DFDFDF"/>
<rect x="243.314" y="293.013" width="260.2" height="4.26557" rx="2.13279" fill="#DFDFDF"/>
<rect x="243.314" y="305.383" width="260.2" height="4.26557" rx="2.13279" fill="#DFDFDF"/>
<rect x="243.314" y="305.383" width="260.2" height="4.26557" rx="2.13279" fill="#DFDFDF"/>
<rect x="243.314" y="317.327" width="260.2" height="3.83901" rx="1.91951" fill="#DFDFDF"/>
<rect x="243.314" y="317.327" width="260.2" height="3.83901" rx="1.91951" fill="#DFDFDF"/>
<rect x="243.314" y="329.697" width="260.2" height="3.83901" rx="1.91951" fill="#DFDFDF"/>
<rect x="243.314" y="329.697" width="260.2" height="3.83901" rx="1.91951" fill="#DFDFDF"/>
<rect x="243.314" y="342.067" width="260.2" height="3.83901" rx="1.91951" fill="#DFDFDF"/>
<rect x="243.314" y="342.067" width="260.2" height="3.83901" rx="1.91951" fill="#DFDFDF"/>
<rect x="243.314" y="354.438" width="260.2" height="3.83901" rx="1.91951" fill="#DFDFDF"/>
<rect x="243.314" y="354.438" width="260.2" height="3.83901" rx="1.91951" fill="#DFDFDF"/>
<rect x="243.314" y="366.381" width="260.2" height="3.83901" rx="1.91951" fill="#DFDFDF"/>
<rect x="243.314" y="366.381" width="260.2" height="3.83901" rx="1.91951" fill="#DFDFDF"/>
<rect x="243.314" y="378.325" width="260.2" height="4.26557" rx="2.13279" fill="#DFDFDF"/>
<rect x="243.314" y="378.325" width="260.2" height="4.26557" rx="2.13279" fill="#DFDFDF"/>
<rect x="243.314" y="390.695" width="260.2" height="4.26557" rx="2.13279" fill="#DFDFDF"/>
<rect x="243.314" y="390.695" width="260.2" height="4.26557" rx="2.13279" fill="#DFDFDF"/>
<rect x="243.314" y="403.065" width="260.2" height="3.83901" rx="1.91951" fill="#DFDFDF"/>
<rect x="243.314" y="403.065" width="260.2" height="3.83901" rx="1.91951" fill="#DFDFDF"/>
<rect x="243.314" y="423.113" width="64.8367" height="4.26557" rx="2.13279" fill="#DFDFDF"/>
<rect x="243.314" y="423.113" width="64.8367" height="4.26557" rx="2.13279" fill="#DFDFDF"/>
<rect x="405.408" y="423.113" width="98.1081" height="4.26557" rx="2.13279" fill="#DFDFDF"/>
<rect x="405.408" y="423.113" width="98.1081" height="4.26557" rx="2.13279" fill="#DFDFDF"/>
<ellipse cx="267.416" cy="131.348" rx="24.527" ry="24.7403" fill="#5C6CF9"/>
</g>
<path d="M240.17 272.059C284.384 227.41 284.384 155.019 240.17 110.369C195.956 65.7201 124.271 65.7202 80.0565 110.369C35.8425 155.019 35.8425 227.409 80.0565 272.059C124.271 316.708 195.956 316.708 240.17 272.059Z" fill="#1B1A59"/>
<path d="M160.117 288.792C213.482 288.792 256.744 245.105 256.744 191.214C256.744 137.323 213.482 93.6364 160.117 93.6364C106.751 93.6364 63.4902 137.323 63.4902 191.214C63.4902 245.105 106.751 288.792 160.117 288.792Z" fill="url(#paint0_linear_710_245)"/>
<path d="M160.117 293.68C104.168 293.68 58.6504 247.714 58.6504 191.214C58.6504 134.714 104.168 88.7484 160.117 88.7484C216.067 88.7484 261.584 134.714 261.584 191.214C261.584 247.714 216.067 293.68 160.117 293.68ZM160.117 93.6344C106.837 93.6344 63.4906 137.408 63.4906 191.212C63.4906 245.019 106.837 288.79 160.117 288.79C213.397 288.79 256.744 245.017 256.744 191.212C256.744 137.408 213.397 93.6344 160.117 93.6344Z" fill="#1B1A59"/>
<path d="M160.118 250.703C192.653 250.703 219.028 224.069 219.028 191.214C219.028 158.359 192.653 131.725 160.118 131.725C127.584 131.725 101.209 158.359 101.209 191.214C101.209 224.069 127.584 250.703 160.118 250.703Z" fill="url(#paint1_linear_710_245)"/>
<path d="M160.117 255.589C124.967 255.589 96.3691 226.71 96.3691 191.212C96.3691 155.714 124.965 126.837 160.117 126.837C195.269 126.837 223.864 155.716 223.864 191.212C223.864 226.708 195.267 255.589 160.117 255.589ZM160.117 136.613C130.303 136.613 106.048 161.107 106.048 191.214C106.048 221.321 130.303 245.815 160.117 245.815C189.93 245.815 214.186 221.321 214.186 191.214C214.186 161.107 189.93 136.613 160.117 136.613Z" fill="white"/>
<path d="M160.114 214.262C172.719 214.262 182.937 203.943 182.937 191.214C182.937 178.485 172.719 168.167 160.114 168.167C147.509 168.167 137.291 178.485 137.291 191.214C137.291 203.943 147.509 214.262 160.114 214.262Z" fill="url(#paint2_linear_710_245)"/>
<path d="M160.114 219.148C144.861 219.148 132.451 206.616 132.451 191.212C132.451 175.809 144.861 163.277 160.114 163.277C175.367 163.277 187.778 175.809 187.778 191.212C187.778 206.616 175.367 219.148 160.114 219.148ZM160.114 173.053C150.198 173.053 142.132 181.198 142.132 191.212C142.132 201.226 150.198 209.372 160.114 209.372C170.031 209.372 178.097 201.226 178.097 191.212C178.097 181.2 170.031 173.053 160.114 173.053Z" fill="white"/>
<path d="M318.358 71.4081L320.927 74.9081L189.643 173.165L187.074 169.663L318.358 71.4081Z" fill="#20147B"/>
<path d="M190.292 162.63C192.282 161.142 199.231 170.61 197.241 172.099L163.426 191.59C162.176 192.31 160.943 190.629 161.989 189.63L190.292 162.63Z" fill="#4EAFD7"/>
<path d="M320.849 74.9653L335.998 78.818L311.752 96.9645C303.808 102.91 293.641 104.944 284.053 102.506L320.849 74.9653Z" fill="#4EAFD7"/>
<path d="M318.278 71.4633L319.035 55.7074L294.789 73.8538C286.845 79.7997 281.96 89.0302 281.48 99.0042L318.278 71.4633Z" fill="#4EAFD7"/>
<defs>
<filter id="filter0_d_710_245" x="149" y="14" width="448.4" height="503" filterUnits="userSpaceOnUse" color-interpolation-filters="sRGB">
<feFlood flood-opacity="0" result="BackgroundImageFix"/>
<feColorMatrix in="SourceAlpha" type="matrix" values="0 0 0 0 0 0 0 0 0 0 0 0 0 0 0 0 0 0 127 0" result="hardAlpha"/>
<feOffset/>
<feGaussianBlur stdDeviation="35"/>
<feComposite in2="hardAlpha" operator="out"/>
<feColorMatrix type="matrix" values="0 0 0 0 0.2 0 0 0 0 0.2 0 0 0 0 0.2 0 0 0 0.1 0"/>
<feBlend mode="normal" in2="BackgroundImageFix" result="effect1_dropShadow_710_245"/>
<feBlend mode="normal" in="SourceGraphic" in2="effect1_dropShadow_710_245" result="shape"/>
</filter>
<linearGradient id="paint0_linear_710_245" x1="244.297" y1="78.35" x2="24.0013" y2="367.977" gradientUnits="userSpaceOnUse">
<stop stop-color="#6B4BDC"/>
<stop offset="1" stop-color="#474A9D"/>
</linearGradient>
<linearGradient id="paint1_linear_710_245" x1="211.439" y1="122.405" x2="77.1342" y2="298.979" gradientUnits="userSpaceOnUse">
<stop stop-color="#6B4BDC"/>
<stop offset="1" stop-color="#474A9D"/>
</linearGradient>
<linearGradient id="paint2_linear_710_245" x1="179.997" y1="164.556" x2="127.964" y2="232.965" gradientUnits="userSpaceOnUse">
<stop stop-color="#6B4BDC"/>
<stop offset="1" stop-color="#474A9D"/>
</linearGradient>
</defs>
</svg>
