<svg width="41" height="41" viewBox="0 0 41 41" fill="none" xmlns="http://www.w3.org/2000/svg">
<circle cx="20.5" cy="20.5" r="20.5" fill="#6B49DC"/>
<path d="M23.223 23.6235L24.6319 22.2146C24.8217 22.0272 25.0618 21.8989 25.323 21.8453C25.5843 21.7917 25.8555 21.8151 26.1037 21.9127L27.8208 22.5983C28.0717 22.7001 28.2868 22.8739 28.439 23.0978C28.5912 23.3216 28.6738 23.5855 28.6762 23.8562V27.0011C28.6748 27.1853 28.6361 27.3672 28.5624 27.536C28.4888 27.7048 28.3818 27.857 28.2478 27.9833C28.1138 28.1097 27.9556 28.2076 27.7828 28.2712C27.61 28.3348 27.4261 28.3628 27.2422 28.3534C15.2098 27.605 12.782 17.4155 12.3228 13.5159C12.3015 13.3244 12.321 13.1305 12.38 12.9471C12.439 12.7636 12.5361 12.5948 12.665 12.4516C12.794 12.3084 12.9518 12.1941 13.128 12.1163C13.3043 12.0385 13.495 11.9988 13.6877 12H16.7257C16.9968 12.0008 17.2614 12.0827 17.4856 12.2352C17.7098 12.3876 17.8832 12.6036 17.9836 12.8554L18.6692 14.5725C18.77 14.8198 18.7957 15.0912 18.7431 15.353C18.6906 15.6147 18.562 15.8552 18.3736 16.0444L16.9647 17.4533C16.9647 17.4533 17.7761 22.9442 23.223 23.6235Z" fill="white"/>
</svg>
