<svg width="78" height="78" viewBox="0 0 78 78" fill="none" xmlns="http://www.w3.org/2000/svg">
<circle cx="39" cy="39" r="39" fill="#6B4BDC"/>
<path d="M42.7012 53H35.2612L36.5012 34.72H41.4612L42.7012 53ZM38.9812 24.68C40.0746 24.68 40.9946 25.0267 41.7412 25.72C42.4612 26.44 42.8212 27.3067 42.8212 28.32C42.8212 29.3333 42.4612 30.1733 41.7412 30.84C41.0212 31.5333 40.1012 31.88 38.9812 31.88C37.8612 31.88 36.9412 31.5333 36.2212 30.84C35.5012 30.1733 35.1412 29.3333 35.1412 28.32C35.1412 27.3067 35.5146 26.44 36.2612 25.72C36.9812 25.0267 37.8879 24.68 38.9812 24.68Z" fill="white"/>
</svg>
