<svg width="44" height="44" viewBox="0 0 44 44" fill="none" xmlns="http://www.w3.org/2000/svg">
<path fill-rule="evenodd" clip-rule="evenodd" d="M21.9993 3.66669C18.5606 3.66669 15.6721 3.84855 13.2911 4.37769C10.8894 4.91147 8.89314 5.82269 7.35758 7.35825C5.82202 8.89381 4.91079 10.8901 4.37702 13.2918C3.84788 15.6728 3.66602 18.5612 3.66602 22C3.66602 25.4388 3.84788 28.3272 4.37702 30.7082C4.91079 33.11 5.82202 35.1062 7.35758 36.6418C8.89314 38.1774 10.8894 39.0885 13.2911 39.6224C15.6721 40.1515 18.5606 40.3334 21.9993 40.3334C25.4381 40.3334 28.3265 40.1515 30.7075 39.6224C33.1094 39.0885 35.1055 38.1774 36.6411 36.6418C38.1767 35.1062 39.0879 33.11 39.6217 30.7082C40.1508 28.3272 40.3327 25.4388 40.3327 22C40.3327 18.5612 40.1508 15.6728 39.6217 13.2918C39.0879 10.8901 38.1767 8.89381 36.6411 7.35825C35.1055 5.82269 33.1094 4.91147 30.7075 4.37769C28.3265 3.84855 25.4381 3.66669 21.9993 3.66669ZM20.166 12.8334C19.1535 12.8334 18.3327 13.6542 18.3327 14.6667V20.1667H16.4993C15.4868 20.1667 14.666 20.9875 14.666 22C14.666 23.0126 15.4868 23.8334 16.4993 23.8334H18.3327V25.6667H16.4993C15.4868 25.6667 14.666 26.4875 14.666 27.5C14.666 28.5126 15.4868 29.3334 16.4993 29.3334H18.3327V31.1667C18.3327 32.1792 19.1535 33 20.166 33C21.1786 33 21.9993 32.1792 21.9993 31.1667V29.3334H27.4993C28.5119 29.3334 29.3327 28.5126 29.3327 27.5C29.3327 26.4875 28.5119 25.6667 27.4993 25.6667H21.9993V23.8334H24.7493C26.5513 23.8334 28.0684 23.2216 29.1395 22.1505C30.1933 21.0967 30.7077 19.7036 30.7077 18.3334C30.7077 16.9632 30.1933 15.57 29.1395 14.5162C28.0684 13.4451 26.5513 12.8334 24.7493 12.8334H20.166Z" fill="white"/>
<path fill-rule="evenodd" clip-rule="evenodd" d="M22 20.1667V16.5H24.75C25.698 16.5 26.2434 16.8049 26.5474 17.1089C26.8686 17.4301 27.0417 17.8702 27.0417 18.3333C27.0417 18.7964 26.8686 19.2366 26.5474 19.5578C26.2434 19.8618 25.698 20.1667 24.75 20.1667H22Z" fill="white"/>
</svg>
