<svg width="52" height="52" viewBox="0 0 52 52" fill="none" xmlns="http://www.w3.org/2000/svg">
<g clip-path="url(#clip0_85_117)">
<path d="M30.3593 29.8023C30.6884 29.8041 30.9865 29.9395 31.2014 30.157C31.4164 30.3745 31.5483 30.674 31.5468 31.0037C31.5443 31.3223 31.418 31.6221 31.1905 31.8471C30.9634 32.0715 30.6633 32.1943 30.3446 32.192C30.0249 32.1908 29.7262 32.0648 29.5019 31.8379C29.5014 31.8374 29.5014 31.8374 29.5014 31.8374C29.2765 31.6099 29.1546 31.3093 29.156 30.9907C29.1606 30.3318 29.6999 29.7987 30.3593 29.8023Z" fill="white"/>
<path d="M40.531 25.1821C40.7479 25.1832 40.9427 25.2652 41.0942 25.4185C41.2463 25.5724 41.3259 25.7671 41.3241 25.9823C41.3234 26.1998 41.2412 26.3935 41.0873 26.5457C40.9339 26.6973 40.738 26.7771 40.5223 26.7759C40.0903 26.7753 39.7271 26.4067 39.7302 25.9747C39.7316 25.759 39.8137 25.564 39.9671 25.4124C40.121 25.2602 40.3158 25.1804 40.531 25.1821Z" fill="white"/>
<path d="M15.9201 11.4988L36.0547 11.6083C37.013 11.613 37.9111 11.991 38.5844 12.6722L49.2782 23.4906C50.6681 24.8967 50.6542 27.1721 49.2471 28.563L38.4211 39.2642C37.7394 39.938 36.8366 40.3063 35.8784 40.3004L15.7436 40.1908C14.7854 40.1861 13.8867 39.8076 13.2139 39.1269C12.5406 38.4458 12.173 37.5422 12.1795 36.5851L12.3113 15.066C12.3172 14.1083 12.6958 13.2088 13.3775 12.535C14.0586 11.8617 14.9618 11.493 15.9201 11.4988ZM40.5085 29.167C41.3595 29.1716 42.1617 28.8446 42.7675 28.2458C43.3738 27.6464 43.7101 26.8469 43.7148 25.9954C43.7205 25.1462 43.3941 24.343 42.7952 23.7371C42.1968 23.1317 41.3985 22.796 40.5466 22.7914C39.6963 22.7861 38.8928 23.1131 38.2865 23.7125C37.6806 24.3113 37.3444 25.1098 37.3392 25.9618C37.334 26.8138 37.6604 27.6159 38.2588 28.2212C38.8578 28.8271 39.6571 29.1628 40.5085 29.167ZM26.765 30.9778C26.7591 31.9355 27.1267 32.838 27.8 33.5191C27.8006 33.5197 27.8006 33.5197 27.8006 33.5197C28.4744 34.2014 29.372 34.5789 30.3297 34.5841C31.2862 34.5893 32.1883 34.2216 32.8706 33.5472C33.5529 32.8728 33.9315 31.9744 33.9374 31.0168C33.9496 29.0399 32.3501 27.4218 30.3732 27.4111C28.3958 27.4009 26.7771 29.0009 26.765 30.9778ZM19.3666 30.0912C18.8971 30.5553 18.8924 31.3127 19.3562 31.7819C19.8201 32.2511 20.5774 32.2553 21.047 31.7911L31.2539 21.7018C31.7235 21.2376 31.7282 20.4803 31.2643 20.0111C30.8005 19.5418 30.0432 19.5377 29.5736 20.0019L19.3666 30.0912ZM16.6828 20.7781C16.6769 21.7358 17.0445 22.6382 17.7178 23.3194C17.7184 23.32 17.7184 23.32 17.7184 23.32C18.3923 24.0017 19.2899 24.3792 20.2475 24.3844C21.2041 24.3896 22.1062 24.0218 22.7884 23.3474C23.4707 22.673 23.8494 21.7747 23.8552 20.8171C23.8674 18.8401 22.268 17.2221 20.2911 17.2114C18.3136 17.2012 16.6949 18.8012 16.6828 20.7781Z" fill="white"/>
<path d="M20.2773 19.6026C20.6064 19.6044 20.9044 19.7398 21.1194 19.9573C21.3344 20.1748 21.4663 20.4743 21.4648 20.8039C21.4623 21.1226 21.336 21.4224 21.1085 21.6474C20.8814 21.8718 20.5812 21.9946 20.2626 21.9923C19.9428 21.9911 19.6441 21.8651 19.4199 21.6382C19.4193 21.6377 19.4193 21.6377 19.4193 21.6377C19.1945 21.4102 19.0726 21.1096 19.074 20.791C19.0786 20.1321 19.6179 19.599 20.2773 19.6026Z" fill="white"/>
</g>
<defs>
<clipPath id="clip0_85_117">
<rect width="36.6152" height="36.6411" fill="white" transform="matrix(-0.702996 -0.711193 -0.711193 0.702996 51.7988 26.0405)"/>
</clipPath>
</defs>
</svg>
