<svg width="23" height="20" viewBox="0 0 23 20" fill="none" xmlns="http://www.w3.org/2000/svg">
<path d="M0.390505 9.22999L5.4848 11.1313L7.4566 17.4726C7.58277 17.8788 8.0794 18.0289 8.40905 17.7594L11.2487 15.4445C11.5463 15.2019 11.9703 15.1898 12.2814 15.4156L17.4031 19.1341C17.7557 19.3904 18.2553 19.1972 18.3437 18.7711L22.0957 0.723653C22.1922 0.25819 21.7349 -0.130113 21.2917 0.0413038L0.384536 8.10664C-0.131408 8.30562 -0.126913 9.03609 0.390505 9.22999ZM7.13883 10.1192L17.095 3.9872C17.2739 3.87732 17.458 4.11926 17.3043 4.26179L9.08764 11.8996C8.79882 12.1685 8.61252 12.5282 8.55975 12.9188L8.27986 14.993C8.24279 15.2699 7.85375 15.2974 7.77732 15.0294L6.70085 11.247C6.57756 10.8155 6.75723 10.3547 7.13883 10.1192Z" fill="white"/>
</svg>
