<svg width="53" height="53" viewBox="0 0 53 53" fill="none" xmlns="http://www.w3.org/2000/svg">
<path d="M45.7341 8.07021C45.7341 8.07021 50.0238 6.3974 49.6649 10.4596C49.5467 12.1324 48.4746 17.9878 47.6399 24.3202L44.7801 43.08C44.7801 43.08 44.5416 45.8283 42.3962 46.3064C40.2519 46.7834 37.0343 44.6336 36.4381 44.1555C35.9611 43.7966 27.501 38.4193 24.5219 35.7914C23.6872 35.0737 22.7332 33.6405 24.6412 31.9677L37.1525 20.0184C38.5824 18.5852 40.0123 15.2396 34.0542 19.3018L17.3702 30.6526C17.3702 30.6526 15.4633 31.8484 11.8891 30.773L4.14231 28.3825C4.14231 28.3825 1.28252 26.5904 6.16846 24.7983C18.0857 19.1825 32.7435 13.4475 45.7319 8.07021H45.7341Z" fill="white"/>
</svg>
