<svg width="52" height="52" viewBox="0 0 52 52" fill="none" xmlns="http://www.w3.org/2000/svg">
<path d="M50.8207 12.532C50.2767 14.2701 49.4811 15.9191 48.459 17.4265L48.5002 17.3615C47.5295 18.9793 46.3704 20.8484 45.0227 22.9688C43.8671 24.6429 43.2554 25.5096 43.1875 25.5688C42.8787 25.9555 42.6789 26.4179 42.609 26.9078L42.6069 26.923C42.662 27.3644 42.867 27.7736 43.1875 28.0821L44.0542 29.0485C48.6909 33.8137 51.2988 37.0984 51.878 38.9025C51.9879 39.1988 52.0232 39.5176 51.9809 39.8308C51.9386 40.1441 51.8199 40.4421 51.6354 40.6986L51.6397 40.6921C51.4216 40.9171 51.1557 41.0902 50.8616 41.1986C50.5676 41.307 50.253 41.3479 49.941 41.3183H49.9497H44.2384C43.5082 41.3183 42.8365 41.0626 42.31 40.638L42.3165 40.6423C41.5648 40.026 40.8747 39.3381 40.256 38.5883L40.2365 38.5623C39.2384 37.4342 38.353 36.4845 37.5802 35.7131C35.0062 33.2663 33.1068 32.0428 31.8819 32.0428C31.4865 32.0074 31.0912 32.1108 30.7639 32.3353L30.7704 32.331C30.6297 32.5073 30.5265 32.7104 30.4669 32.928C30.4073 33.1455 30.3926 33.3729 30.4237 33.5963V33.5876C30.3395 34.5986 30.312 35.6135 30.3414 36.6275V36.5906V39.1018C30.4029 39.4018 30.3818 39.7128 30.2803 40.0017C30.1788 40.2906 30.0007 40.5464 29.765 40.742L29.7629 40.7441C28.6657 41.2399 27.4577 41.4393 26.2594 41.3226L26.2875 41.3248C23.0076 41.2685 19.8052 40.3187 17.025 38.5775L17.1009 38.6208C13.895 36.6881 11.1472 34.0822 9.04736 30.9833L8.98886 30.8923C6.95054 28.1742 5.15882 25.2796 3.63503 22.243L3.48336 21.9093C2.46797 19.9429 1.57575 17.9154 0.811859 15.8383L0.681859 15.4375C0.327686 14.3592 0.102232 13.2428 0.0101927 12.1116L0.00585938 12.0575C0.00585938 10.9626 0.650082 10.4151 1.93853 10.4151H7.63686C8.21295 10.37 8.78483 10.5441 9.23803 10.9026L9.23369 10.8983C9.66703 11.3728 9.98769 11.9556 10.1459 12.6056L10.1524 12.6316C11.0938 15.3277 12.2434 17.9464 13.5909 20.4641L13.4457 20.1673C14.4196 22.1455 15.5982 24.0162 16.9622 25.7486L16.9124 25.6815C18.0679 27.0999 18.9692 27.8091 19.6164 27.8091L19.6857 27.8113C19.838 27.8115 19.9878 27.7716 20.1197 27.6955C20.2517 27.6194 20.3614 27.5099 20.4375 27.378L20.4397 27.3736C20.6471 26.8306 20.7293 26.2477 20.6802 25.6685V25.6815V17.277C20.6397 16.3241 20.4037 15.3897 19.9869 14.5318L20.0042 14.573C19.7514 14.0278 19.4232 13.5209 19.0292 13.0671L19.0357 13.0758C18.6724 12.7131 18.436 12.2426 18.3619 11.7346L18.3597 11.7216C18.3597 11.3533 18.5287 11.0218 18.793 10.8051L18.7952 10.803C19.0672 10.5538 19.423 10.4162 19.7919 10.4173H28.7922C29.0181 10.3909 29.2471 10.4211 29.4584 10.505C29.6698 10.589 29.8571 10.7241 30.0034 10.8983L30.0055 10.9005C30.2792 11.4061 30.3989 11.9808 30.35 12.5536V12.5428V23.751C30.3155 24.193 30.4184 24.635 30.6447 25.0163L30.6404 25.0076C30.7197 25.1262 30.827 25.2234 30.9529 25.2907C31.0787 25.358 31.2192 25.3932 31.3619 25.3933C31.7273 25.3696 32.0818 25.2484 32.3845 25.0423L32.378 25.0466C32.9674 24.6415 33.4744 24.18 33.9142 23.6578L33.9229 23.647C35.2614 22.1324 36.4615 20.5009 37.5087 18.772L37.5932 18.6203C38.3385 17.3853 39.1445 15.8643 39.8747 14.3021L40.009 13.9836L40.9754 12.051C41.1455 11.5513 41.4737 11.1205 41.9103 10.8238C42.3469 10.5272 42.8683 10.3807 43.3955 10.4065H43.389H49.0895C50.6293 10.4065 51.2071 11.115 50.8229 12.532H50.8207Z" fill="white"/>
</svg>
