<svg width="51" height="51" viewBox="0 0 51 51" fill="none" xmlns="http://www.w3.org/2000/svg">
<path d="M40.4805 10.4339C38.5323 8.46597 36.2117 6.90567 33.6542 5.84398C31.0967 4.7823 28.3533 4.24048 25.5842 4.25013C13.9817 4.25013 4.52547 13.7064 4.52547 25.3089C4.52547 29.0276 5.50297 32.6401 7.33047 35.8276L4.35547 46.7501L15.5117 43.8176C18.593 45.4964 22.0567 46.3889 25.5842 46.3889C37.1867 46.3889 46.643 36.9326 46.643 25.3301C46.643 19.6989 44.4542 14.4076 40.4805 10.4339ZM25.5842 42.8189C22.4392 42.8189 19.358 41.9689 16.6592 40.3751L16.0217 39.9926L9.39172 41.7351L11.1555 35.2751L10.7305 34.6164C8.98318 31.8262 8.05539 28.601 8.05297 25.3089C8.05297 15.6614 15.9155 7.79888 25.563 7.79888C30.238 7.79888 34.6367 9.62638 37.9305 12.9414C39.5614 14.5648 40.8538 16.4958 41.7329 18.6224C42.612 20.749 43.0603 23.029 43.0517 25.3301C43.0942 34.9776 35.2317 42.8189 25.5842 42.8189ZM35.1892 29.7289C34.658 29.4739 32.0655 28.1989 31.598 28.0076C31.1092 27.8376 30.7692 27.7526 30.408 28.2626C30.0467 28.7939 29.048 29.9839 28.7505 30.3239C28.453 30.6851 28.1342 30.7276 27.603 30.4514C27.0717 30.1964 25.3717 29.6226 23.3742 27.8376C21.8017 26.4351 20.7605 24.7139 20.4417 24.1826C20.1442 23.6514 20.3992 23.3751 20.6755 23.0989C20.9092 22.8651 21.2067 22.4826 21.4617 22.1851C21.7167 21.8876 21.823 21.6539 21.993 21.3139C22.163 20.9526 22.078 20.6551 21.9505 20.4001C21.823 20.1451 20.7605 17.5526 20.3355 16.4901C19.9105 15.4701 19.4642 15.5976 19.1455 15.5764H18.1255C17.7642 15.5764 17.2117 15.7039 16.723 16.2351C16.2555 16.7664 14.8955 18.0414 14.8955 20.6339C14.8955 23.2264 16.7867 25.7339 17.0417 26.0739C17.2967 26.4351 20.7605 31.7476 26.0305 34.0214C27.2842 34.5739 28.2617 34.8926 29.0267 35.1264C30.2805 35.5301 31.428 35.4664 32.3417 35.3389C33.3617 35.1901 35.4655 34.0639 35.8905 32.8314C36.3367 31.5989 36.3367 30.5576 36.188 30.3239C36.0392 30.0901 35.7205 29.9839 35.1892 29.7289Z" fill="white"/>
</svg>
